<svg width="24" height="25" viewBox="0 0 24 25" fill="none" xmlns="http://www.w3.org/2000/svg">
<path d="M18.1401 22.4012C17.2601 22.6612 16.2201 22.7812 15.0001 22.7812H9.00011C7.78011 22.7812 6.74011 22.6612 5.86011 22.4012C6.08011 19.8012 8.75011 17.7512 12.0001 17.7512C15.2501 17.7512 17.9201 19.8012 18.1401 22.4012Z" stroke="#C5A946" stroke-width="1.5" stroke-linecap="round" stroke-linejoin="round"/>
<path d="M15 2.78125H9C4 2.78125 2 4.78125 2 9.78125V15.7812C2 19.5612 3.14 21.6312 5.86 22.4012C6.08 19.8012 8.75 17.7512 12 17.7512C15.25 17.7512 17.92 19.8012 18.14 22.4012C20.86 21.6312 22 19.5612 22 15.7812V9.78125C22 4.78125 20 2.78125 15 2.78125ZM12 14.9512C10.02 14.9512 8.42 13.3413 8.42 11.3613C8.42 9.38127 10.02 7.78125 12 7.78125C13.98 7.78125 15.58 9.38127 15.58 11.3613C15.58 13.3413 13.98 14.9512 12 14.9512Z" stroke="#C5A946" stroke-width="1.5" stroke-linecap="round" stroke-linejoin="round"/>
<path d="M15.5799 11.3613C15.5799 13.3413 13.9799 14.9512 11.9999 14.9512C10.0199 14.9512 8.41992 13.3413 8.41992 11.3613C8.41992 9.38127 10.0199 7.78125 11.9999 7.78125C13.9799 7.78125 15.5799 9.38127 15.5799 11.3613Z" stroke="#C5A946" stroke-width="1.5" stroke-linecap="round" stroke-linejoin="round"/>
</svg>
