<svg width="24" height="25" viewBox="0 0 24 25" fill="none" xmlns="http://www.w3.org/2000/svg">
<path d="M21.97 19.1112C21.97 19.4712 21.89 19.8413 21.72 20.2013C21.55 20.5613 21.33 20.9013 21.04 21.2213C20.55 21.7613 20.01 22.1513 19.4 22.4013C18.8 22.6513 18.15 22.7812 17.45 22.7812C16.43 22.7812 15.34 22.5413 14.19 22.0513C13.04 21.5613 11.89 20.9013 10.75 20.0713C9.6 19.2313 8.51 18.3012 7.47 17.2712C6.44 16.2312 5.51 15.1413 4.68 14.0013C3.86 12.8613 3.2 11.7213 2.72 10.5913C2.24 9.45125 2 8.36125 2 7.32125C2 6.64125 2.12 5.99125 2.36 5.39125C2.6 4.78125 2.98 4.22125 3.51 3.72125C4.15 3.09125 4.85 2.78125 5.59 2.78125C5.87 2.78125 6.15 2.84125 6.4 2.96125C6.66 3.08125 6.89 3.26125 7.07 3.52125L9.39 6.79125C9.57 7.04125 9.7 7.27125 9.79 7.49125C9.88 7.70125 9.93 7.91125 9.93 8.10125C9.93 8.34125 9.86 8.58125 9.72 8.81125C9.59 9.04125 9.4 9.28125 9.16 9.52125L8.4 10.3112C8.29 10.4212 8.24 10.5513 8.24 10.7113C8.24 10.7913 8.25 10.8612 8.27 10.9412C8.3 11.0212 8.33 11.0812 8.35 11.1412C8.53 11.4712 8.84 11.9013 9.28 12.4213C9.73 12.9413 10.21 13.4713 10.73 14.0013C11.27 14.5313 11.79 15.0212 12.32 15.4712C12.84 15.9112 13.27 16.2112 13.61 16.3912C13.66 16.4112 13.72 16.4412 13.79 16.4712C13.87 16.5012 13.95 16.5112 14.04 16.5112C14.21 16.5112 14.34 16.4513 14.45 16.3413L15.21 15.5913C15.46 15.3413 15.7 15.1512 15.93 15.0312C16.16 14.8912 16.39 14.8212 16.64 14.8212C16.83 14.8212 17.03 14.8613 17.25 14.9513C17.47 15.0413 17.7 15.1713 17.95 15.3413L21.26 17.6912C21.52 17.8712 21.7 18.0812 21.81 18.3312C21.91 18.5812 21.97 18.8312 21.97 19.1112Z" stroke="#C5A946" stroke-width="1.5" stroke-miterlimit="10"/>
</svg>
