<svg width="26" height="26" viewBox="0 0 26 26" fill="none" xmlns="http://www.w3.org/2000/svg">
<path d="M11.9581 19.6153H9.46042C8.23933 19.6153 7.24025 20.5909 7.24025 21.7832V22.0542H6.13017C5.67504 22.0542 5.29761 22.4227 5.29761 22.8671C5.29761 23.3116 5.67504 23.6801 6.13017 23.6801H19.4512C19.9063 23.6801 20.2837 23.3116 20.2837 22.8671C20.2837 22.4227 19.9063 22.0542 19.4512 22.0542H18.3411V21.7832C18.3411 20.5909 17.342 19.6153 16.1209 19.6153H13.6232V17.1331C13.3457 17.1656 13.0682 17.1764 12.7907 17.1764C12.5131 17.1764 12.2356 17.1656 11.9581 17.1331V19.6153Z" fill="black"/>
<path d="M19.9833 12.4493C20.716 12.1783 21.3598 11.7339 21.8705 11.2352C22.9029 10.1188 23.58 8.78552 23.58 7.22464C23.58 5.66375 22.3256 4.43889 20.7271 4.43889H20.1054C19.3839 2.99723 17.8742 2 16.1202 2H9.45975C7.70582 2 6.19611 2.99723 5.47456 4.43889H4.85291C3.25439 4.43889 2 5.66375 2 7.22464C2 8.78552 2.67715 10.1188 3.70953 11.2352C4.22016 11.7339 4.86401 12.1783 5.59667 12.4493C6.75115 15.2242 9.52636 17.1753 12.79 17.1753C16.0536 17.1753 18.8288 15.2242 19.9833 12.4493ZM15.9426 8.99147L15.2544 9.81527C15.1434 9.93451 15.0657 10.173 15.0768 10.3356L15.1434 11.3978C15.1878 12.0482 14.7104 12.3842 14.0888 12.1458L13.0786 11.7555C12.9232 11.7013 12.6568 11.7013 12.5014 11.7555L11.4912 12.1458C10.8696 12.3842 10.3922 12.0482 10.4366 11.3978L10.5032 10.3356C10.5143 10.173 10.4366 9.93451 10.3256 9.81527L9.63737 8.99147C9.20443 8.49286 9.39315 7.94004 10.037 7.77745L11.0916 7.5173C11.2581 7.47394 11.4579 7.32219 11.5467 7.18128L12.1351 6.29244C12.5014 5.73962 13.0786 5.73962 13.445 6.29244L14.0333 7.18128C14.1221 7.32219 14.3219 7.47394 14.4884 7.5173L15.543 7.77745C16.1869 7.94004 16.3756 8.49286 15.9426 8.99147Z" fill="black"/>
</svg>
