<svg width="26" height="26" viewBox="0 0 26 26" fill="none" xmlns="http://www.w3.org/2000/svg">
<g opacity="0.5">
<path d="M13.1624 17.875V20.15" stroke="#2D2D2D" stroke-width="1.5" stroke-linecap="round" stroke-linejoin="round"/>
<path d="M7.74561 23.8333H18.5789V22.7499C18.5789 21.5583 17.6039 20.5833 16.4123 20.5833H9.91227C8.7206 20.5833 7.74561 21.5583 7.74561 22.7499V23.8333V23.8333Z" stroke="#2D2D2D" stroke-width="1.5" stroke-miterlimit="10"/>
<path d="M6.66235 23.8333H19.6624" stroke="#2D2D2D" stroke-width="1.5" stroke-linecap="round" stroke-linejoin="round"/>
<path d="M13.0001 17.3334C8.80758 17.3334 5.41675 13.9426 5.41675 9.75008V6.50008C5.41675 4.10591 7.35591 2.16675 9.75008 2.16675H16.2501C18.6442 2.16675 20.5834 4.10591 20.5834 6.50008V9.75008C20.5834 13.9426 17.1926 17.3334 13.0001 17.3334Z" stroke="#2D2D2D" stroke-width="1.5" stroke-linecap="round" stroke-linejoin="round"/>
<path d="M5.92579 12.621C5.11329 12.361 4.39829 11.8843 3.83496 11.321C2.85996 10.2376 2.20996 8.93765 2.20996 7.42098C2.20996 5.90431 3.40163 4.71265 4.91829 4.71265H5.62246C5.40579 5.21098 5.29746 5.76348 5.29746 6.33765V9.58765C5.29746 10.671 5.52496 11.6893 5.92579 12.621Z" stroke="#2D2D2D" stroke-width="1.5" stroke-linecap="round" stroke-linejoin="round"/>
<path d="M20.0742 12.621C20.8867 12.361 21.6017 11.8843 22.1651 11.321C23.1401 10.2376 23.7901 8.93765 23.7901 7.42098C23.7901 5.90431 22.5984 4.71265 21.0817 4.71265H20.3776C20.5942 5.21098 20.7026 5.76348 20.7026 6.33765V9.58765C20.7026 10.671 20.4751 11.6893 20.0742 12.621Z" stroke="#2D2D2D" stroke-width="1.5" stroke-linecap="round" stroke-linejoin="round"/>
</g>
</svg>
