<svg width="25" height="25" viewBox="0 0 25 25" fill="none" xmlns="http://www.w3.org/2000/svg">
<path d="M16.0799 12.427C16.0799 14.407 14.4799 16.007 12.4999 16.007C10.5199 16.007 8.91992 14.407 8.91992 12.427C8.91992 10.447 10.5199 8.84705 12.4999 8.84705C14.4799 8.84705 16.0799 10.447 16.0799 12.427Z" stroke="#C5A946" stroke-width="1.5" stroke-linecap="round" stroke-linejoin="round"/>
<path d="M12.5001 20.697C16.0301 20.697 19.3201 18.617 21.6101 15.017C22.5101 13.607 22.5101 11.237 21.6101 9.82697C19.3201 6.22697 16.0301 4.14697 12.5001 4.14697C8.97009 4.14697 5.68009 6.22697 3.39009 9.82697C2.49009 11.237 2.49009 13.607 3.39009 15.017C5.68009 18.617 8.97009 20.697 12.5001 20.697Z" stroke="#C5A946" stroke-width="1.5" stroke-linecap="round" stroke-linejoin="round"/>
</svg>
