<svg width="24" height="25" viewBox="0 0 24 25" fill="none" xmlns="http://www.w3.org/2000/svg">
<path d="M14.5299 10.3243L9.46992 15.3843C8.81992 14.7343 8.41992 13.8443 8.41992 12.8543C8.41992 10.8743 10.0199 9.27429 11.9999 9.27429C12.9899 9.27429 13.8799 9.67429 14.5299 10.3243Z" stroke="#C5A946" stroke-width="1.5" stroke-linecap="round" stroke-linejoin="round"/>
<path d="M17.8201 6.62423C16.0701 5.30423 14.0701 4.58423 12.0001 4.58423C8.47009 4.58423 5.18009 6.66423 2.89009 10.2642C1.99009 11.6742 1.99009 14.0442 2.89009 15.4542C3.68009 16.6942 4.60009 17.7642 5.60009 18.6242" stroke="#C5A946" stroke-width="1.5" stroke-linecap="round" stroke-linejoin="round"/>
<path d="M8.41992 20.3843C9.55992 20.8643 10.7699 21.1243 11.9999 21.1243C15.5299 21.1243 18.8199 19.0443 21.1099 15.4443C22.0099 14.0343 22.0099 11.6643 21.1099 10.2543C20.7799 9.7343 20.4199 9.2443 20.0499 8.7843" stroke="#C5A946" stroke-width="1.5" stroke-linecap="round" stroke-linejoin="round"/>
<path d="M15.5099 13.5542C15.2499 14.9642 14.0999 16.1142 12.6899 16.3742" stroke="#C5A946" stroke-width="1.5" stroke-linecap="round" stroke-linejoin="round"/>
<path d="M9.47 15.3843L2 22.8543" stroke="#C5A946" stroke-width="1.5" stroke-linecap="round" stroke-linejoin="round"/>
<path d="M22 2.85425L14.53 10.3242" stroke="#C5A946" stroke-width="1.5" stroke-linecap="round" stroke-linejoin="round"/>
</svg>
