<svg width="26" height="26" viewBox="0 0 26 26" fill="none" xmlns="http://www.w3.org/2000/svg">
<g opacity="0.5">
<path d="M9.92024 22.5024V19.1801C9.92022 18.3351 10.6091 17.6485 11.4627 17.6428H14.5893C15.4469 17.6428 16.1421 18.3311 16.1421 19.1801V22.5127C16.1419 23.2302 16.7204 23.8166 17.4449 23.8334H19.5293C21.6071 23.8334 23.2916 22.1658 23.2916 20.1087V10.6577C23.2805 9.84848 22.8967 9.08854 22.2494 8.5942L15.1208 2.90916C13.8719 1.91928 12.0966 1.91928 10.8478 2.90916L3.75045 8.60452C3.1007 9.09686 2.71625 9.85805 2.70825 10.6681V20.1087C2.70825 22.1658 4.3927 23.8334 6.47057 23.8334H8.55496C9.29747 23.8334 9.89939 23.2375 9.89939 22.5024" stroke="#2D2D2D" stroke-width="1.5" stroke-linecap="round" stroke-linejoin="round"/>
</g>
</svg>
