<svg width="26" height="26" viewBox="0 0 26 26" fill="none" xmlns="http://www.w3.org/2000/svg">
<path fill-rule="evenodd" clip-rule="evenodd" d="M9.92024 22.5024V19.1801C9.92022 18.335 10.6091 17.6484 11.4627 17.6427H14.5893C15.4469 17.6427 16.1421 18.331 16.1421 19.1801V22.5127C16.1419 23.2301 16.7204 23.8165 17.4449 23.8333H19.5293C21.6071 23.8333 23.2916 22.1657 23.2916 20.1086V10.6577C23.2805 9.8484 22.8967 9.08846 22.2494 8.59412L15.1208 2.90908C13.8719 1.9192 12.0966 1.9192 10.8478 2.90908L3.75045 8.60444C3.1007 9.09677 2.71625 9.85797 2.70825 10.668V20.1086C2.70825 22.1657 4.3927 23.8333 6.47057 23.8333H8.55496C9.29747 23.8333 9.89939 23.2374 9.89939 22.5024" fill="black"/>
</svg>
