<svg width="26" height="26" viewBox="0 0 26 26" fill="none" xmlns="http://www.w3.org/2000/svg">
<path d="M23 13C23 7.49 18.51 3 13 3C7.49 3 3 7.49 3 13C3 15.9 4.25 18.51 6.23 20.34C6.23 20.35 6.23 20.35 6.22 20.36C6.32 20.46 6.44 20.54 6.54 20.63C6.6 20.68 6.65 20.73 6.71 20.77C6.89 20.92 7.09 21.06 7.28 21.2C7.35 21.25 7.41 21.29 7.48 21.34C7.67 21.47 7.87 21.59 8.08 21.7C8.15 21.74 8.23 21.79 8.3 21.83C8.5 21.94 8.71 22.04 8.93 22.13C9.01 22.17 9.09 22.21 9.17 22.24C9.39 22.33 9.61 22.41 9.83 22.48C9.91 22.51 9.99 22.54 10.07 22.56C10.31 22.63 10.55 22.69 10.79 22.75C10.86 22.77 10.93 22.79 11.01 22.8C11.29 22.86 11.57 22.9 11.86 22.93C11.9 22.93 11.94 22.94 11.98 22.95C12.32 22.98 12.66 23 13 23C13.34 23 13.68 22.98 14.01 22.95C14.05 22.95 14.09 22.94 14.13 22.93C14.42 22.9 14.7 22.86 14.98 22.8C15.05 22.79 15.12 22.76 15.2 22.75C15.44 22.69 15.69 22.64 15.92 22.56C16 22.53 16.08 22.5 16.16 22.48C16.38 22.4 16.61 22.33 16.82 22.24C16.9 22.21 16.98 22.17 17.06 22.13C17.27 22.04 17.48 21.94 17.69 21.83C17.77 21.79 17.84 21.74 17.91 21.7C18.11 21.58 18.31 21.47 18.51 21.34C18.58 21.3 18.64 21.25 18.71 21.2C18.91 21.06 19.1 20.92 19.28 20.77C19.34 20.72 19.39 20.67 19.45 20.63C19.56 20.54 19.67 20.45 19.77 20.36C19.77 20.35 19.77 20.35 19.76 20.34C21.75 18.51 23 15.9 23 13ZM17.94 17.97C15.23 16.15 10.79 16.15 8.06 17.97C7.62 18.26 7.26 18.6 6.96 18.97C5.44 17.43 4.5 15.32 4.5 13C4.5 8.31 8.31 4.5 13 4.5C17.69 4.5 21.5 8.31 21.5 13C21.5 15.32 20.56 17.43 19.04 18.97C18.75 18.6 18.38 18.26 17.94 17.97Z" fill="black"/>
<path d="M13 7.92969C10.93 7.92969 9.25 9.60969 9.25 11.6797C9.25 13.7097 10.84 15.3597 12.95 15.4197C12.98 15.4197 13.02 15.4197 13.04 15.4197C13.06 15.4197 13.09 15.4197 13.11 15.4197C13.12 15.4197 13.13 15.4197 13.13 15.4197C15.15 15.3497 16.74 13.7097 16.75 11.6797C16.75 9.60969 15.07 7.92969 13 7.92969Z" fill="black"/>
</svg>
