<svg width="26" height="26" viewBox="0 0 26 26" fill="none" xmlns="http://www.w3.org/2000/svg">
<g opacity="0.5">
<path d="M20 20.2064C18.1513 21.9444 15.7003 23 13 23C10.2997 23 7.84866 21.9444 6 20.2064C6.10386 19.2041 6.727 18.2232 7.83828 17.4554C10.684 15.5149 15.3368 15.5149 18.1617 17.4554C19.273 18.2232 19.8961 19.2041 20 20.2064Z" stroke="#2D2D2D" stroke-width="1.5" stroke-linecap="round" stroke-linejoin="round"/>
<path d="M13 23C18.5228 23 23 18.5228 23 13C23 7.47715 18.5228 3 13 3C7.47715 3 3 7.47715 3 13C3 18.5228 7.47715 23 13 23Z" stroke="#2D2D2D" stroke-width="1.5" stroke-linecap="round" stroke-linejoin="round"/>
<path d="M12.75 6.92969C10.68 6.92969 9 8.60969 9 10.6797C9 12.7097 10.59 14.3597 12.7 14.4197C12.73 14.4197 12.77 14.4197 12.79 14.4197C12.81 14.4197 12.84 14.4197 12.86 14.4197C12.87 14.4197 12.88 14.4197 12.88 14.4197C14.9 14.3497 16.49 12.7097 16.5 10.6797C16.5 8.60969 14.82 6.92969 12.75 6.92969Z" stroke="#2D2D2D" stroke-width="1.5"/>
</g>
</svg>
