<svg width="26" height="26" viewBox="0 0 26 26" fill="none" xmlns="http://www.w3.org/2000/svg">
<path d="M13 2C6.9345 2 2 6.9345 2 13C2 19.0655 6.9345 24 13 24C19.0655 24 24 19.0655 24 13C24 6.9345 19.0655 2 13 2ZM13.1964 20.0714C11.2814 20.0714 9.48721 19.3157 8.14448 17.9436C7.80308 17.5949 7.80913 17.0351 8.15829 16.6937C8.50617 16.3518 9.06639 16.3575 9.40822 16.7075C10.4156 17.7369 11.7609 18.3036 13.1964 18.3036C16.121 18.3036 18.5 15.9246 18.5 13C18.5 10.0754 16.121 7.69643 13.1964 7.69643C10.7782 7.69643 8.73737 9.32469 8.10161 11.5413L8.15182 11.4911C8.49711 11.1458 9.05647 11.1458 9.40175 11.4911C9.74704 11.8364 9.74704 12.3958 9.40175 12.741L7.63389 14.5089C7.46125 14.6815 7.23509 14.7679 7.00893 14.7679C6.78277 14.7679 6.55661 14.6815 6.38396 14.5089L4.61611 12.741C4.27082 12.3958 4.27082 11.8364 4.61611 11.4911C4.96139 11.1458 5.52075 11.1458 5.86604 11.4911L6.22681 11.8519C6.77802 8.49811 9.6891 5.92857 13.1964 5.92857C17.0956 5.92857 20.2679 9.10087 20.2679 13C20.2679 16.8991 17.0956 20.0714 13.1964 20.0714ZM15.127 14.0159C15.4339 14.3228 15.4339 14.82 15.127 15.127C14.9735 15.2804 14.7725 15.3571 14.5714 15.3571C14.3704 15.3571 14.1694 15.2804 14.0159 15.127L12.4445 13.5555C12.2972 13.4082 12.2143 13.2083 12.2143 13V9.85714C12.2143 9.42323 12.5661 9.07143 13 9.07143C13.4339 9.07143 13.7857 9.42323 13.7857 9.85714V12.6747L15.127 14.0159Z" fill="black"/>
</svg>
