<svg width="26" height="26" viewBox="0 0 26 26" fill="none" xmlns="http://www.w3.org/2000/svg">
<g opacity="0.5">
<path d="M13 2C6.9345 2 2 6.9345 2 13C2 19.0655 6.9345 24 13 24C19.0655 24 24 19.0655 24 13C24 6.9345 19.0655 2 13 2ZM13 22.4286C7.80116 22.4286 3.57143 18.1988 3.57143 13C3.57143 7.80116 7.80116 3.57143 13 3.57143C18.1988 3.57143 22.4286 7.80116 22.4286 13C22.4286 18.1988 18.1988 22.4286 13 22.4286ZM19.2857 13C19.2857 16.4659 16.4659 19.2857 13 19.2857C11.2977 19.2857 9.70292 18.6139 8.50938 17.3943C8.20591 17.0843 8.21129 16.5867 8.52166 16.2833C8.83088 15.9794 9.32886 15.9844 9.63271 16.2955C10.5281 17.2106 11.724 17.7143 13 17.7143C15.5996 17.7143 17.7143 15.5996 17.7143 13C17.7143 10.4004 15.5996 8.28571 13 8.28571C10.8505 8.28571 9.03637 9.73308 8.47126 11.7034L8.5159 11.6588C8.82282 11.3518 9.32003 11.3518 9.62695 11.6588C9.93387 11.9657 9.93387 12.4629 9.62695 12.7698L8.05552 14.3412C7.90206 14.4947 7.70103 14.5714 7.5 14.5714C7.29897 14.5714 7.09794 14.4947 6.94448 14.3412L5.37305 12.7698C5.06613 12.4629 5.06613 11.9657 5.37305 11.6588C5.67997 11.3518 6.17718 11.3518 6.4841 11.6588L6.80478 11.9794C7.29475 8.99834 9.88237 6.71429 13 6.71429C16.4659 6.71429 19.2857 9.53411 19.2857 13ZM13.7857 9.85714V12.6747L15.127 14.0159C15.4339 14.3228 15.4339 14.82 15.127 15.127C14.9735 15.2804 14.7725 15.3571 14.5714 15.3571C14.3704 15.3571 14.1694 15.2804 14.0159 15.127L12.4445 13.5555C12.2972 13.4082 12.2143 13.2083 12.2143 13V9.85714C12.2143 9.42323 12.5661 9.07143 13 9.07143C13.4339 9.07143 13.7857 9.42323 13.7857 9.85714Z" fill="#2D2D2D"/>
</g>
</svg>
